<?xml version="1.0" encoding="utf-8"?>
<!-- Generator: Adobe Illustrator 21.0.2, SVG Export Plug-In . SVG Version: 6.00 Build 0)  -->
<svg version="1.1" id="Layer_1" xmlns="http://www.w3.org/2000/svg" xmlns:xlink="http://www.w3.org/1999/xlink" x="0px" y="0px"
	 viewBox="0 0 512 512" style="enable-background:new 0 0 512 512;" xml:space="preserve">
<style type="text/css">
	.st0{display:none;}
</style>
<path d="M456.5,66.5v379.1h-401V66.5H456.5 M479.7,26.5H32.3c-9.3,0-16.8,7.5-16.8,16.8v425.4c0,9.3,7.5,16.8,16.8,16.8h447.4
	c9.3,0,16.8-7.5,16.8-16.8V43.3C496.5,34,489,26.5,479.7,26.5L479.7,26.5z"/>
<path class="st0" d="M386,406H126c-11,0-20-9-20-20V126c0-11,9-20,20-20h260c11,0,20,9,20,20v260C406,397,397,406,386,406z"/>
<g>
	<path d="M168.3,394.1c-1.5,0-3.1-0.1-4.6-0.3c-9.8-1.5-18.5-7.6-23.1-16.4L92.3,286c-5.2-9.8-1.4-21.9,8.3-27
		c9.8-5.2,21.9-1.4,27,8.3l42.8,81l217.3-218.1c7.8-7.8,20.5-7.8,28.3-0.1c7.8,7.8,7.8,20.5,0.1,28.3L190.6,384.8
		C184.7,390.8,176.6,394.1,168.3,394.1z"/>
</g>
</svg>
