<?xml version="1.0" encoding="utf-8"?>
<!-- Generator: Adobe Illustrator 21.0.2, SVG Export Plug-In . SVG Version: 6.00 Build 0)  -->
<svg version="1.1" id="Layer_1" xmlns="http://www.w3.org/2000/svg" xmlns:xlink="http://www.w3.org/1999/xlink" x="0px" y="0px"
	 viewBox="0 0 512 512" style="enable-background:new 0 0 512 512;" xml:space="preserve">
<style type="text/css">
	.st0{display:none;}
</style>
<path class="st0" d="M437,330c-27.9-27.9-61.1-48.5-97.3-61c38.8-26.7,64.3-71.4,64.3-122C404,65.4,337.6-1,256-1S108,65.4,108,147
	c0,50.5,25.5,95.3,64.3,122c-36.2,12.5-69.4,33.1-97.3,61C26.6,378.3,0,442.6,0,511h40c0-119.1,96.9-216,216-216s216,96.9,216,216
	h40C512,442.6,485.4,378.3,437,330z M256,255c-59.6,0-108-48.4-108-108S196.4,39,256,39s108,48.4,108,108S315.6,255,256,255z"/>
<g>
	<path d="M256.9,291.2c-72.8,0-132-59.2-132-132s59.2-132,132-132c72.8,0,132,59.2,132,132S329.7,291.2,256.9,291.2z M256.9,67.1
		c-50.7,0-92,41.3-92,92c0,50.7,41.3,92,92,92s92-41.3,92-92C348.9,108.4,307.6,67.1,256.9,67.1z"/>
</g>
<g>
	<path d="M491.7,507H20.3v-20c0-63,24.5-122.2,69-166.7c44.5-44.5,103.7-69,166.7-69c63,0,122.2,24.5,166.7,69s69,103.7,69,166.7
		V507z M61.3,467h389.3c-10-98.5-93.5-175.7-194.7-175.7S71.4,368.5,61.3,467z"/>
</g>
</svg>
