<?xml version="1.0" encoding="utf-8"?>
<!-- Generator: Adobe Illustrator 21.0.2, SVG Export Plug-In . SVG Version: 6.00 Build 0)  -->
<svg version="1.1" id="Layer_1" xmlns="http://www.w3.org/2000/svg" xmlns:xlink="http://www.w3.org/1999/xlink" x="0px" y="0px"
	 viewBox="0 0 512 512" style="enable-background:new 0 0 512 512;" xml:space="preserve">
<g>
	<path d="M503.4,323.9H303v-40h159.5c-9.9-104.8-98.3-187.1-205.7-187.1S61,179.1,51.1,283.9h161.4v40H10.3l-0.1-19.9
		c0-0.2,0-0.4,0-0.6c0-65.9,25.7-127.8,72.2-174.4C129,82.5,190.9,56.9,256.8,56.9s127.8,25.7,174.4,72.2
		c46.6,46.6,72.2,108.5,72.2,174.4c0,0.2,0,0.4,0,0.6V323.9z"/>
</g>
<g>
	<rect x="111.2" y="133.6" transform="matrix(0.8669 -0.4985 0.4985 0.8669 -59.6651 86.0055)" width="40" height="42.2"/>
</g>
<g>
	<rect x="360.7" y="134.7" transform="matrix(0.656 -0.7548 0.7548 0.656 14.5726 341.4366)" width="42.2" height="40"/>
</g>
<g>
	<rect x="233.8" y="87.9" width="40" height="73.2"/>
</g>
<g>
	<path d="M256.8,354c-28.2,0-51.1-22.9-51.1-51.1s22.9-51.1,51.1-51.1c28.2,0,51.1,22.9,51.1,51.1S285,354,256.8,354z M256.8,291.8
		c-6.1,0-11.1,5-11.1,11.1s5,11.1,11.1,11.1s11.1-5,11.1-11.1S262.9,291.8,256.8,291.8z"/>
</g>
<path d="M183.7,163.7c4.4,4,8.8,8.1,13,12.3c4.2,4.2,8.4,8.4,12.5,12.6l6.1,6.4l6,6.5l5.9,6.6l5.8,6.6c1.9,2.2,4,4.3,6.1,6.4
	c2.1,2.1,4.4,4.1,6.4,6.2c2.1,2.1,4,4.3,5.6,6.8c1.6,2.4,2.9,5,4,7.8c2.1,5.5,3.7,11.4,4.4,17.8c0.7,6.4,0.9,13.2-0.9,21.2l-3.4,2.2
	c-8-1.8-14-4.8-19.6-8.1c-5.5-3.4-10.2-7.2-14.3-11.5c-2-2.1-3.9-4.4-5.4-6.9c-1.5-2.5-2.8-5.1-3.8-7.9c-1-2.8-1.9-5.6-2.9-8.4
	c-1-2.8-2-5.6-3.2-8.2l-3.6-8l-3.5-8.1l-3.3-8.2l-3.2-8.2c-2.1-5.5-4.2-11-6.2-16.6c-2-5.6-4-11.2-5.8-16.9L183.7,163.7z"/>
</svg>
