<?xml version="1.0" encoding="utf-8"?>
<!-- Generator: Adobe Illustrator 21.0.2, SVG Export Plug-In . SVG Version: 6.00 Build 0)  -->
<svg version="1.1" id="Capa_1" xmlns="http://www.w3.org/2000/svg" xmlns:xlink="http://www.w3.org/1999/xlink" x="0px" y="0px"
	 viewBox="0 0 512 512" style="enable-background:new 0 0 512 512;" xml:space="preserve">
<style type="text/css">
	.st0{display:none;}
	.st1{display:inline;}
	.st2{fill:#277BB5;}
	.st3{display:none;fill:none;stroke:#000000;stroke-width:40;stroke-miterlimit:10;}
</style>
<g class="st0">
	<g class="st1">
		<g>
			<path class="st2" d="M241.2,378.9c-3.9-2.8-9.3-2-12.1,1.9l-1.1,1.5c-2.8,3.9-2,9.3,1.8,12.1c1.5,1.1,3.3,1.7,5.1,1.7
				c2.7,0,5.3-1.2,7-3.5l1.1-1.5C245.9,387.1,245.1,381.7,241.2,378.9z"/>
		</g>
	</g>
	<g class="st1">
		<g>
			<path class="st2" d="M243.5,461.2l-22.3-40.5l20.8-28.3c2.8-3.9,2-9.3-1.9-12.1c-3.9-2.8-9.3-2-12.1,1.9L204,415
				c-2,2.7-2.2,6.3-0.6,9.3l24.9,45.3l0,0c1.6,2.9,4.5,4.5,7.6,4.5c1.4,0,2.8-0.3,4.2-1.1C244.3,470.7,245.8,465.4,243.5,461.2z"/>
		</g>
	</g>
	<g class="st1">
		<g>
			<path class="st2" d="M308,415l-24-32.6c-2-2.7-5.4-4-8.6-3.4c-3.3,0.6-5.9,3.1-6.7,6.4c-0.6,2.5-0.1,5.1,1.4,7.2l20.7,28.2
				L268.7,461c-0.7,1.3-1.1,2.7-1.1,4.2c0,4,2.7,7.4,6.5,8.4c0.7,0.2,1.4,0.3,2.2,0.3c3.1,0,6-1.7,7.6-4.5l24.8-45
				C310.2,421.3,310,417.7,308,415z"/>
		</g>
	</g>
	<g class="st1">
		<g>
			<path class="st2" d="M321.7,278.9c-2.8-1.5-6.3-1.3-8.9,0.5c-5.1,3.5-9.9,7.3-14.2,11.2c-23.3,21.1-45.4,18.2-46.3,18.1
				c-0.5-0.1-1.1-0.1-1.6-0.1c-9.2,0.2-25.8-8.2-43.4-22c-2.7-2.1-5.4-4.1-8.2-6c-2.7-1.8-6.1-2-8.9-0.5c-2.8,1.5-4.6,4.4-4.6,7.6
				v29.7c0,2.6,1.2,5.1,3.2,6.8c0.2,0.2,0.5,0.4,0.8,0.5l61.4,41l0,0l0.2,0.1c1.4,1,3.1,1.4,4.8,1.4c1.4,0,2.8-0.3,4.1-1
				c0.3-0.1,0.5-0.3,0.8-0.5c0,0,0.1,0,0.1-0.1c0,0,0.1,0,0.1-0.1l61.2-40.9c0.2-0.2,0.5-0.3,0.7-0.5c2.1-1.6,3.3-4.2,3.3-6.8v-31
				C326.4,283.4,324.6,280.4,321.7,278.9z M309,312.9l-53,35.4l-53-35.4V305c12.9,9.4,31.9,20.9,47.4,20.9h0.1
				c5.2,0.6,31.7,2.1,58.6-21.4L309,312.9L309,312.9z"/>
		</g>
	</g>
	<g class="st1">
		<g>
			<path class="st2" d="M264.5,357.3c-0.6-3.4-3.1-6.2-6.5-7s-6.9,0.5-9,3.3l-19.9,27.1c-2.8,3.9-2,9.3,1.9,12.1
				c1.5,1.1,3.3,1.7,5.1,1.7c2.7,0,5.3-1.2,7-3.5l19.8-27c1.1-1.5,1.8-3.3,1.8-5.3C264.7,358.3,264.6,357.8,264.5,357.3z"/>
		</g>
	</g>
	<g class="st1">
		<g>
			<path class="st2" d="M387.9,78.3c-0.2-1.4-4.2-30.6-31.8-42.2c0.8-5.1,0.7-11.7-2.5-18.2c-4.4-8.6-13-14.3-25.7-16.7
				c-0.5-0.1-1.1-0.2-1.7-0.2H210c-47.2,0-85.6,38.4-85.6,85.6v45.6c0,11.9,4,23.5,11.4,32.6c3.6,4.5,8.1,12.5,8.8,24.4
				c0.3,4.7,4.2,8.3,8.9,8.2s8.4-4,8.4-8.7v-59.4c5.9-24.3,25.9-29,29.4-29.7h37.6c4.4,0,8.8-0.7,12.9-2c7.1-2.3,18.5-6.5,26.7-9.6
				c5.5-2.1,11.6-2.2,17.2-0.2l40.2,14.1c20.1,7.4,23.7,25.1,24.1,27.9v71.3c0,4.5,3.5,8.3,8,8.6c0.2,0,0.4,0,0.7,0
				c4.2,0,7.9-3.1,8.6-7.4c0-0.2,3.5-22.6,14.6-40.4c3.9-6.2,5.9-13.3,5.9-20.5v-62C388,79,387.9,78.6,387.9,78.3z M370.6,141.4
				c0,3.9-1.1,7.7-3.2,11.1v-23.4c0-0.3,0-0.6-0.1-0.9c-0.1-1.3-3.7-30.9-35.5-42.6h-0.1l-40.3-14.1c-4.5-1.6-9.3-2.4-14-2.4
				c-5.1,0-10.2,0.9-15,2.8c-11.6,4.4-20.5,7.6-25.9,9.3c-2.4,0.8-5,1.2-7.6,1.2h-38.3c-0.4,0-0.7,0-1.1,0.1
				c-1.5,0.2-36,5.1-44.7,44c-0.1,0.6-0.2,1.3-0.2,1.9v17.8c-1.9-4.4-2.9-9.1-2.9-14V86.6c0-37.6,30.6-68.2,68.2-68.2h115.3
				c4.8,1,10.6,3.1,12.8,7.4c2.7,5.2-0.4,12.4-0.4,12.4c-1.1,2.4-1.1,5.1,0,7.4c1.1,2.3,3.2,4.1,5.8,4.7c22,5.3,26.5,26.4,27.1,29.9
				L370.6,141.4L370.6,141.4z"/>
		</g>
	</g>
	<g class="st1">
		<g>
			<path class="st2" d="M367.4,128.2c-0.1-1.3-3.7-30.9-35.5-42.6h-0.1l-40.3-14.1c-9.4-3.3-19.8-3.2-29.1,0.4
				c-11.6,4.4-20.5,7.6-25.9,9.3c-2.4,0.8-5,1.2-7.6,1.2h-38.3c-0.4,0-0.7,0-1.1,0.1c-1.5,0.2-36,5.1-44.7,44
				c-0.1,0.6-0.2,1.3-0.2,1.9v74.4c0,0.1,0,0.1,0,0.2c0.1,2.6,1.9,63.6,44.1,91.6l0.2,0.2c0.2,0.1,0.4,0.3,0.6,0.4
				c2.4,1.6,4.8,3.4,7.2,5.2c12.3,9.6,35.4,25.7,53.7,25.7h0.1c1,0.1,2.8,0.3,5.2,0.3c10.4,0,32.4-2.7,54.6-22.7
				c3.7-3.4,7.9-6.6,12.4-9.8l0.6-0.5c0.2-0.1,0.4-0.3,0.6-0.4c14.1-9.5,38.4-33.8,43.6-91c0-0.3,0-0.5,0-0.8v-71.9
				C367.5,128.8,367.5,128.5,367.4,128.2z M350.2,200.7c-4.7,51.6-26.7,71.6-35.9,77.8c-0.3,0.2-0.7,0.4-1,0.7l-0.5,0.3
				c-5.1,3.5-9.9,7.3-14.2,11.2c-23.2,21-45.3,18.2-46.4,18.1c-0.5-0.1-1-0.1-1.5-0.1c-9.2,0.2-25.8-8.2-43.4-22
				c-2.7-2.1-5.4-4.1-8.2-6l-0.2-0.1c-0.2-0.1-0.4-0.3-0.7-0.5c-34-22.5-36.3-75.3-36.3-77.4v-73.3c5.9-24.4,26.1-29.1,29.4-29.7
				h37.6c4.4,0,8.8-0.7,12.9-2c7.1-2.3,18.5-6.5,26.7-9.6c5.5-2.1,11.6-2.2,17.2-0.2l40.2,14.1c20.1,7.4,23.7,25.1,24.1,27.9
				L350.2,200.7L350.2,200.7z"/>
		</g>
	</g>
	<g class="st1">
		<g>
			<path class="st2" d="M263.7,354.9c-1.3-2.7-4-4.5-7-4.8c-3-0.2-5.9,1.1-7.7,3.5l-20.7,28.2c-2.8,3.9-2,9.3,1.8,12.1
				c1.5,1.1,3.3,1.7,5.1,1.7c2.7,0,5.3-1.2,7-3.5L263,364c1.1-1.5,1.7-3.4,1.7-5.2C264.7,357.4,264.3,356.1,263.7,354.9z"/>
		</g>
	</g>
	<g class="st1">
		<g>
			<path class="st2" d="M264.3,494.3c-3.3-3.4-8.6-3.6-12.1-0.4l-2,1.8c-3,2.7-3.7,7.1-1.7,10.6l0.1,0.1c1.3,2.4,3.7,4,6.4,4.4
				c0.4,0.1,0.8,0.1,1.2,0.1c2.3,0,4.5-0.9,6.1-2.5l1.9-1.9C267.5,503.1,267.5,497.7,264.3,494.3z"/>
		</g>
	</g>
	<g class="st1">
		<g>
			<path class="st2" d="M261.8,495.7l-2-1.8c-3.5-3.2-8.8-3-12.1,0.4s-3.2,8.8,0.1,12.1l1.9,1.9c1.6,1.6,3.8,2.5,6.1,2.5
				c0.4,0,0.8,0,1.2-0.1c2.7-0.4,5.1-2,6.4-4.4l0.1-0.1C265.4,502.7,264.7,498.4,261.8,495.7z"/>
		</g>
	</g>
	<g class="st1">
		<g>
			<path class="st2" d="M261.9,495.8L261.9,495.8c-1.3-1.3-3.1-2.1-5-2.3c-2.6-0.3-5,0.6-6.8,2.3l0,0c-1.8,1.6-2.8,3.8-2.8,6.2
				c-0.1,2.4,0.9,4.7,2.6,6.3l0.1,0.1c1.7,1.7,3.9,2.5,6.1,2.5s4.4-0.8,6.1-2.5l0.1-0.1c1.7-1.7,2.6-4,2.5-6.3
				C264.7,499.6,263.7,497.4,261.9,495.8z"/>
		</g>
	</g>
	<g class="st1">
		<g>
			<path class="st2" d="M258.8,350.4c-3.6-1.1-7.5,0.2-9.7,3.3c-2.4,3.4-2,8.1,0.9,11.1c1.7,1.7,3.9,2.5,6.1,2.5
				c1.7,0,3.5-0.5,5-1.6c2.3-1.6,3.7-4.3,3.7-7.1l0,0C264.8,354.8,262.4,351.5,258.8,350.4z"/>
		</g>
	</g>
	<g class="st1">
		<g>
			<path class="st2" d="M263,353.6l-0.1-0.1c-2.2-3-6.1-4.2-9.7-3.1c-3.5,1.2-5.9,4.5-5.9,8.2v0.1c0,3.2,1.8,6.1,4.6,7.6
				c1.3,0.7,2.7,1,4.1,1c1.7,0,3.4-0.5,4.8-1.5c2-1.3,3.3-3.4,3.7-5.7C265,357.9,264.4,355.5,263,353.6z"/>
		</g>
	</g>
	<g class="st1">
		<g>
			<path class="st2" d="M359,326.4c-0.9-2.4-2.8-4.2-5.2-5.1l-33.2-11.9c-0.3-0.1-0.5-0.2-0.8-0.3c-2.4-0.6-4.9-0.2-6.9,1.2
				l-61.5,41.1c0,0,0,0-0.1,0l4.8,7.2l-4.9-7.1c-1.8,1.2-3.1,3-3.6,5.1c-0.3,1.2-0.3,2.4-0.1,3.5c0.2,1.3,0.8,2.6,1.6,3.7l45,61.3
				c1.6,2.2,4.2,3.5,7,3.5c0.2,0,0.4,0,0.6,0c2.9-0.2,5.6-1.9,7-4.5l49.9-90.6C359.7,331.4,359.9,328.7,359,326.4z M300,404
				l-31.6-43.1l50.5-33.8l19.5,7L300,404z"/>
		</g>
	</g>
	<g class="st1">
		<g>
			<path class="st2" d="M264.5,357.3c-0.4-2.3-1.7-4.4-3.7-5.7l-61.7-41.2c-2-1.3-4.4-1.8-6.7-1.3c-0.4,0.1-0.7,0.2-1,0.3
				l-33.2,11.9c-2.4,0.9-4.3,2.7-5.2,5.1s-0.7,5,0.5,7.2l49.9,90.6c1.4,2.6,4.1,4.3,7,4.5c0.2,0,0.4,0,0.6,0c2.7,0,5.3-1.3,7-3.5
				l24.1-32.8c0,0,0-0.1,0.1-0.1l20.9-28.5C264.4,362,264.9,359.6,264.5,357.3z M228.1,382.2C228,382.2,228,382.3,228.1,382.2
				L212,404l-38.4-69.9l19.5-7l50.5,33.8L228.1,382.2z"/>
		</g>
	</g>
	<g class="st1">
		<g>
			<path class="st2" d="M511.6,474.2l-11.2-67.4c-3.5-21.3-18.3-39-38.5-46.3l-108-39.1c-3.3-1.2-7.1-0.3-9.4,2.4
				c-2.4,2.6-2.9,6.5-1.3,9.6l22.6,45.2l-22.1,0.3c-3,0-5.8,1.6-7.3,4.2s-1.6,5.8-0.2,8.4l9.1,17.3l-92.9,85
				c-0.1,0.1-0.2,0.2-0.3,0.3l-1.9,1.9c-2.7,2.7-3.3,6.9-1.5,10.3l0.1,0.1c1.5,2.8,4.4,4.5,7.6,4.5h224.2c9.3,0,18.1-4.1,24.1-11.2
				C510.5,492.7,513.1,483.3,511.6,474.2z M491.3,488.6c-2.7,3.2-6.7,5.1-10.9,5.1H278.1l83.6-76.5c2.9-2.7,3.6-6.9,1.8-10.4
				l-5.6-10.8l21.8-0.3c3,0,5.7-1.6,7.3-4.2c1.5-2.5,1.7-5.7,0.4-8.4l-19-38.2l87.7,31.7c14.4,5.2,24.9,17.8,27.4,32.9l11.2,67.4
				l0,0C495.2,481.1,494,485.4,491.3,488.6z"/>
		</g>
	</g>
	<g class="st1">
		<g>
			<path class="st2" d="M262,495.9l-0.1-0.1c-3.4-3.1-8.7-3-11.9,0.3l-0.1,0.1c-2.5,2.5-3.2,6.2-1.9,9.4c1.3,3.2,4.5,5.3,8,5.3h0.2
				c3.6,0,6.8-2.2,8.1-5.5C265.6,502.1,264.7,498.3,262,495.9z"/>
		</g>
	</g>
	<g class="st1">
		<g>
			<path class="st2" d="M261.7,495.6c-2-1.8-4.6-2.5-7.2-2.1c-2.6,0.4-4.9,2.1-6.1,4.4l-0.1,0.1c-1.8,3.3-1.3,7.5,1.4,10.2l0,0
				c1.7,1.8,4,2.6,6.2,2.6c2.1,0,4.2-0.8,5.8-2.3l0.1-0.1c0.8-0.7,1.4-1.6,1.9-2.5C265.5,502.5,264.6,498.2,261.7,495.6z"/>
		</g>
	</g>
	<g class="st1">
		<g>
			<path class="st2" d="M262.1,496.2L262.1,496.2c-0.1-0.1-0.1-0.1-0.1-0.1l-1.9-1.9c-0.1-0.1-0.2-0.2-0.3-0.3l-92.9-85l9.1-17.3
				c1.4-2.7,1.3-5.9-0.2-8.4c-1.5-2.6-4.3-4.2-7.3-4.2l-22.1-0.3l22.6-45.2c1.6-3.2,1.1-7-1.3-9.6s-6.1-3.6-9.4-2.4l-108,39.1
				c-20.3,7.3-35,25.1-38.5,46.3L0.4,474.2c-1.5,9.2,1.1,18.5,7.1,25.6S22.3,511,31.6,511H256c3.5,0,6.7-2.1,8-5.4
				C265.3,502.4,264.6,498.6,262.1,496.2z M31.6,493.6c-4.2,0-8.2-1.8-10.9-5.1c-2.7-3.2-3.9-7.4-3.2-11.6l11.2-67.4
				c2.5-15.1,13-27.7,27.4-32.9l87.7-31.7l-19,38.2c-1.3,2.7-1.2,5.8,0.4,8.4c1.5,2.5,4.3,4.1,7.3,4.2l21.8,0.3l-5.6,10.8
				c-1.8,3.5-1.1,7.8,1.8,10.4l83.6,76.5L31.6,493.6L31.6,493.6z"/>
		</g>
	</g>
	<g class="st1">
		<g>
			<path class="st2" d="M285.5,389.6c0.6-2.5,0.1-5.1-1.4-7.2L263,353.6c-2.2-3-6.1-4.2-9.7-3c-1.9,0.6-3.5,1.9-4.6,3.5L228,382.2
				c-0.3,0.4-0.6,0.8-0.8,1.3c-1.4,2.8-1.2,6.2,0.6,8.8l8.8,12.6l-9.4,59.1c-0.3,1.9,0,3.8,1,5.5l20.1,36.5c1.5,2.8,4.4,4.5,7.6,4.5
				s6.1-1.7,7.6-4.5l20.2-36.8c0.7-1.3,1.1-2.7,1.1-4.2l0,0c0-0.5,0-0.9-0.1-1.4l-9.3-58.9l8.7-12.5
				C284.8,391.5,285.2,390.6,285.5,389.6z M256,484l-11.1-20.2l9.5-59.6c0.4-2.2-0.2-4.5-1.4-6.3l-7.3-10.4l10.3-14l10.4,14.2
				l-7.2,10.3c-1.3,1.8-1.8,4.1-1.4,6.3l9.4,59.4L256,484z"/>
		</g>
	</g>
</g>
<g>
	<path d="M375,211.4l-39.1-8.5c1.9-9,7.4-31.1,15.9-41.9c1.1-1.4,1.8-4.8,1.8-6.7l0-0.6l0,0v-53.1c-3.8-16-11.9-20.6-13.8-21.5
		L321,76l4.4-18.8c0.5-3.7-0.4-4.6-2.1-5.8c-2-1.4-4.4-2.3-6-2.7c-41.4,0-102.4,0-106.9,0.1c-0.7,0-1.1,0.1-1.4,0.1l-0.3,0.1
		c-22,4.2-36.4,14.5-44.3,31.5c-6,13-5.8,25.4-5.8,26.5l0,0.6l0,0.4l0.2,41.4c0.1,1.8,1,7,4,10.7c11,13.9,13.3,26.9,13.7,29.4
		l-39.6,5.6c0,0,0,0.2,0.1,0.5c0-0.2-1-5.1-5.5-10.7c-12.1-15.2-12.6-33-12.6-35l0-0.1l-0.2-41.4c-0.2-4.1-0.3-22.5,8.5-42.8
		c9-20.7,29-47.2,73.2-55.9c2.7-0.7,5.5-0.9,8.5-1c4.4-0.2,85.8-0.1,110.7-0.1l1.5,0l1.5,0.2c16.5,2.6,38.6,14.9,42.4,38.9
		c10.2,7.2,22.9,21,28.1,46.7l0.4,2v57.1c0.1,4-0.3,19.5-10.3,32.2C381.1,188.9,377.2,201,375,211.4z M353.6,154.5L353.6,154.5
		L353.6,154.5z M158.8,149.4L158.8,149.4C158.8,149.4,158.8,149.4,158.8,149.4z M340.2,79.2L340.2,79.2L340.2,79.2z"/>
</g>
<g>
	<path d="M255.5,338.8c-0.5,0-0.9,0-1.4,0c-40.6-0.8-77.4-37.3-81.4-41.5l-0.4-0.4c-3-3.3-29.5-33-33-65.4
		c-3.9-20.5-2.8-26.8-2.3-29.3c0.1-0.9-0.1-3.3-0.3-4.8l-0.3-1.6l0-1.5l0.2-36.4l0.2-19.3l0.3-1.7c0.4-2,2.6-12.7,10.1-24.4
		c10.6-16.7,26.5-27.4,45.9-30.9l1.8-0.3h37.9c1.2-0.2,2.6-0.5,3.3-0.8l0.9-0.6l1.4-0.7c7.3-3.5,32.6-14.2,51.8-7.8
		c13.1,4.4,41.8,14.5,43,15l0.3,0.1c13.7,5.1,37.9,22.3,41.8,54.2l0.1,1.2l-0.3,69.9c-0.2,2.5-4.6,61.8-43.3,90.9
		C324.4,310,293.1,338.8,255.5,338.8z M201.5,269.6c8.1,8.2,32.9,28.8,53.4,29.2c20.2,0.4,43-18.5,49.4-25.1l1.3-1.3l1.5-1.1
		c20.1-14.5,27.1-48.9,28.2-61.7l0.2-65.2c-2.2-13.9-14-19.6-16-20.4c-3.6-1.3-29.7-10.5-41.7-14.5c-3.5-0.6-13.5,2.1-21.4,5.6
		c-8.1,4.7-17.6,6-20.5,6.2l-0.9,0.1h-36.2c-7.6,1.7-13.4,5.9-17.7,12.6c-2.4,3.8-3.7,7.4-4.2,9.1l-0.2,15.2l-0.2,34.8
		c0.4,3.4,1,9.8,0,15.7c0.1,2.9,1.2,10.7,2.3,16.2l0.2,1l0.1,1C180.5,243.2,195.9,263.4,201.5,269.6z M176.2,210.1
		C176.2,210.1,176.2,210.1,176.2,210.1C176.2,210.1,176.2,210.1,176.2,210.1z M176.5,208.2C176.5,208.2,176.5,208.2,176.5,208.2
		C176.5,208.2,176.5,208.2,176.5,208.2z M319.3,123.9L319.3,123.9C319.4,123.9,319.4,123.9,319.3,123.9L319.3,123.9z"/>
</g>
<g>
	<path d="M51,503.5l-2.1-0.5c-35.2-7.7-43.6-37-40.7-54.8l0-0.1l2.4-14.1l8.9-52l0.4-1.3c9.6-30.8,33.3-46.1,46.1-50.4l107.3-38.9
		v-2.3h6.4l6.7-2.4l0.9,2.4h25.9v30.4L78.9,368.3c-1.7,0.7-14.7,6.3-20.5,23.3L50,440.7l-2.3,13.5c-0.5,5.7,3.4,8,7.9,9.2l401.1-0.4
		c1.3-0.1,4.4-0.8,5.7-2.3c1.2-1.4,1.8-4.5,1.6-8.5l-10.4-61.6c-0.9-2.8-5.4-15.5-18.3-21.6l-136.6-49.6v-32h26.5l0.3-0.8l2.3,0.8
		h10.9v3.9L450.4,332l0.7,0.3c32.3,14.5,40.6,45.8,41.5,49.4l0.3,1.3l10.9,64.5l0.1,0.9c1.5,20.3-5.8,32.8-12.2,39.7
		c-13.5,14.5-32.3,15-34.6,15c0,0,0,0,0,0L51,503.5z M456.9,463c0,0-0.1,0-0.2,0L456.9,463C457,463,457,463,456.9,463z M47.7,454.4
		l0,0.3C47.6,454.6,47.6,454.5,47.7,454.4z"/>
</g>
<g>
	<path d="M232.7,492.6c-0.8-0.7-78.7-72.8-83.5-77.2c-5.1-4.6-7.9-10.1-9.1-15.5c-7.9-1.9-14.4-6.4-18.2-12.8
		c-5.9-9.8-3.5-19.5-2.6-22.3l0.1-0.3l17.5-52.1l37.9,12.7l-12,35.7l34.9,0.5l-15.5,30.1c19,17.6,74.8,69.2,77.6,71.8L232.7,492.6z"
		/>
</g>
<g>
	<path d="M285.8,492.9l-27.2-29.4c2.8-2.5,58.6-54.2,77.6-71.8l-15.5-30.1l34.9-0.5l-12-35.7l37.9-12.7l17.6,52.4
		c0.9,2.8,3.3,12.5-2.6,22.3c-3.9,6.4-10.3,10.9-18.2,12.8c-1.2,5.4-4,10.9-9.1,15.5C364.4,420.1,286.6,492.2,285.8,492.9z"/>
</g>
<g>
	<polygon points="240.6,454.9 201.6,445.8 219.3,370.6 206.6,322.8 245.2,312.5 260.5,370 	"/>
</g>
<g>
	<polygon points="270.2,455.1 250.2,370.2 265.5,312.6 304.1,322.9 291.4,370.8 309.1,445.9 	"/>
</g>
<polyline class="st3" points="275.6,325.1 261.4,384 281,473.9 "/>
</svg>
