<?xml version="1.0" encoding="utf-8"?>
<!-- Generator: Adobe Illustrator 21.0.2, SVG Export Plug-In . SVG Version: 6.00 Build 0)  -->
<svg version="1.1" id="Capa_1" xmlns="http://www.w3.org/2000/svg" xmlns:xlink="http://www.w3.org/1999/xlink" x="0px" y="0px"
	 viewBox="0 0 512 512" style="enable-background:new 0 0 512 512;" xml:space="preserve">
<style type="text/css">
	.st0{display:none;}
	.st1{display:inline;}
	.st2{fill:#727272;}
	.st3{display:none;fill:none;stroke:#1294DD;stroke-width:22;stroke-miterlimit:10;}
	.st4{display:none;fill:none;stroke:#1294DD;stroke-width:2;stroke-miterlimit:10;}
	.st5{display:none;fill:none;stroke:#79AC19;stroke-width:22;stroke-miterlimit:10;}
</style>
<g class="st0">
	<g class="st1">
		<path class="st2" d="M432,0H80C35.8,0,0,35.9,0,80v256c0,44.2,35.8,80,80,80h313.4l91.4,91.4c6.3,6.2,16.4,6.1,22.6-0.2
			c2.9-3,4.6-7,4.6-11.1V80C512,35.8,476.2,0,432,0z M480,457.5l-68.6-68.6c-3-3.1-7.1-4.8-11.4-4.8H80c-26.5,0-48-21.5-48-48V80
			c0-26.5,21.5-48,48-48h352c26.5,0,48,21.5,48,48V457.5z"/>
	</g>
</g>
<path class="st3" d="M453.8,416H58.3C26.2,416,0,389.8,0,357.8V58.3C0,26.2,26.2,0,58.3,0h395.5c32,0,58.3,26.2,58.3,58.3v299.5
	C512,389.8,485.8,416,453.8,416z"/>
<circle class="st4" cx="26" cy="198" r="0"/>
<g>
	<path d="M467.9,500.1c-3.8,0-7.7-0.6-11.7-1.8l-0.3-0.1c-5.9-1.9-11.3-5.2-15.6-9.5l-71.9-71.9h-267c-2.9,0-18.2-0.3-35.9-8.5
		c-17.1-8-40.1-25.2-52.4-61.7c-1.4-4.1-2.1-8.4-2.1-12.5V96.6L11,95.3c-0.1-1.7-0.6-17.1,8.1-34.8c7.8-16,24.9-37.3,61.6-47.9
		l0.4-0.1c3.6-0.9,7-1.4,10.5-1.4l327.6,0.6c3.3,0,6.1,0.5,8,0.9l0.5,0.1c32.1,7.2,68.1,33.5,73.1,85.5c0.2,1.8,0.2,3.2,0.2,4.1
		v362.3c0,6.6-1.6,13-4.6,18.5l-0.1,0.2C490.1,494.1,479.8,500.1,467.9,500.1z M101.1,376.7h267.7c10.4,0,20.2,4.1,27.6,11.4
		l64.6,64.6l0-350.4l0-0.1c-3.5-37.6-30.3-47.9-41.9-50.5c-0.1,0-0.1,0-0.2,0L91.7,51.1c0,0-0.1,0-0.2,0
		C56.8,61.2,51.8,83.6,51.1,91.3v242.4c14.6,43.3,49.5,43,49.8,43L101.1,376.7z M418.8,51.7C418.8,51.7,418.8,51.7,418.8,51.7
		C418.8,51.7,418.8,51.7,418.8,51.7z M91.7,51.1C91.7,51.1,91.7,51.1,91.7,51.1C91.7,51.1,91.7,51.1,91.7,51.1z"/>
</g>
<line class="st5" x1="496" y1="204.3" x2="496" y2="353.3"/>
</svg>
