<?xml version="1.0" encoding="utf-8"?>
<!-- Generator: Adobe Illustrator 21.0.2, SVG Export Plug-In . SVG Version: 6.00 Build 0)  -->
<svg version="1.1" id="Layer_1" xmlns="http://www.w3.org/2000/svg" xmlns:xlink="http://www.w3.org/1999/xlink" x="0px" y="0px"
	 viewBox="0 0 512 512" style="enable-background:new 0 0 512 512;" xml:space="preserve">
<style type="text/css">
	.st0{display:none;}
	.st1{display:none;fill:none;stroke:#000000;stroke-width:40;stroke-miterlimit:10;}
</style>
<g>
	<path d="M200.9,499c-6.3,0-12.5-1.2-18.4-3.6l-37.4-15.5c-21.9-9.1-34.1-33.2-28.4-56.2c1-4.1,2.1-8.2,3.1-12.3
		c-5.4-4.9-10.6-10.1-15.5-15.5c-4.1,1.1-8.3,2.1-12.3,3.1c-23,5.7-47.1-6.5-56.2-28.4l-15.5-37.4c-9.1-21.9-0.6-47.6,19.7-59.8
		c3.6-2.2,7.2-4.3,10.9-6.5c-0.4-7.3-0.4-14.7,0-22c-3.7-2.2-7.3-4.3-10.9-6.5c-20.3-12.2-28.7-37.9-19.7-59.8l15.5-37.4
		c9.1-21.9,33.2-34.1,56.2-28.4c4.1,1,8.2,2.1,12.3,3.1c4.9-5.4,10.1-10.6,15.5-15.5c-1.1-4.1-2.1-8.2-3.1-12.3
		c-5.7-23,6.5-47.1,28.4-56.2l37.4-15.5c21.9-9.1,47.6-0.6,59.8,19.7c2.2,3.6,4.3,7.2,6.5,10.9c7.3-0.4,14.6-0.4,22,0
		c2.2-3.7,4.3-7.3,6.5-10.9C289.4,16,315.1,7.6,337,16.6l37.4,15.5c21.9,9.1,34.1,33.2,28.4,56.2c-1,4-2,8.1-3.1,12.3
		c5.4,4.9,10.6,10.1,15.5,15.5c4.2-1.1,8.3-2.1,12.3-3.1c22.9-5.7,47.1,6.5,56.2,28.4l15.5,37.4c9.1,21.9,0.6,47.6-19.7,59.8
		c-3.6,2.1-7.2,4.3-10.9,6.5c0.4,7.3,0.4,14.7,0,22c3.7,2.2,7.3,4.3,10.9,6.5l0,0c20.3,12.2,28.7,37.9,19.7,59.8l-15.5,37.4
		c-9.1,21.9-33.2,34.1-56.2,28.4c-4.1-1-8.2-2.1-12.3-3.1c-4.9,5.4-10.1,10.6-15.5,15.5c1.1,4.1,2.1,8.3,3.1,12.3
		c5.7,23-6.5,47.1-28.4,56.2L337,495.4c-21.9,9.1-47.6,0.6-59.8-19.7c-2.2-3.6-4.3-7.3-6.5-10.9c-7.3,0.4-14.7,0.4-22,0
		c-2.2,3.7-4.3,7.3-6.5,10.9C233.6,490.1,217.8,499,200.9,499z M292.4,422.4l6.6,11.4c4.1,7.1,8.3,14.3,12.5,21.3
		c2,3.4,6.5,4.8,10.2,3.3l37.4-15.5c3.7-1.5,5.8-5.7,4.9-9.5c-1.9-7.8-4-15.9-6.2-23.9l-3.4-12.7l10.3-8.2
		c10.3-8.1,19.6-17.4,27.7-27.7l8.2-10.3l12.7,3.4c8,2.1,16,4.2,23.9,6.2c3.8,1,8-1.2,9.5-4.9l15.5-37.4c1.5-3.7,0.1-8.1-3.3-10.2
		l0,0c-6.9-4.2-14.1-8.4-21.3-12.5l-11.4-6.6l1.5-13.1c1.5-13,1.5-26.2,0-39.1l-1.5-13.1l11.4-6.6c7.3-4.2,14.4-8.4,21.3-12.5
		c3.3-2,4.8-6.4,3.4-10.1l-0.1-0.1l-15.5-37.4c-1.5-3.7-5.7-5.8-9.5-4.9c-7.7,1.9-15.8,4-23.9,6.2l-12.7,3.4l-8.2-10.3
		c-8.1-10.3-17.4-19.6-27.7-27.7l-10.3-8.2l3.4-12.7c2.2-8.1,4.3-16.2,6.2-23.9c1-3.8-1.2-8-4.9-9.6l-37.4-15.5
		c-3.7-1.5-8.2-0.1-10.2,3.3c-4.2,7-8.4,14.2-12.5,21.3l-6.6,11.4l-13.1-1.5c-13-1.5-26.2-1.5-39.1,0l-13.1,1.5l-6.6-11.4
		c-4.2-7.2-8.4-14.4-12.5-21.3c-2-3.4-6.5-4.8-10.2-3.3l-37.4,15.5c-3.7,1.5-5.8,5.7-4.9,9.5c2,7.9,4,15.9,6.2,23.9l3.4,12.7
		l-10.3,8.2c-10.3,8.1-19.6,17.4-27.7,27.7l-8.2,10.3l-12.7-3.4c-8-2.2-16.1-4.2-23.9-6.2c-3.8-1-8,1.2-9.6,4.9l-15.5,37.4
		c-1.5,3.7-0.1,8.1,3.3,10.2c6.9,4.2,14.1,8.4,21.3,12.5l11.4,6.6l-1.5,13.1c-1.5,13-1.5,26.2,0,39.1l1.5,13.1L82,295.2
		c-7.2,4.1-14.3,8.4-21.3,12.5c-3.4,2-4.8,6.5-3.3,10.2l15.5,37.4c1.5,3.7,5.7,5.8,9.5,4.9c7.8-2,15.9-4,23.9-6.2l12.7-3.4l8.2,10.3
		c8.1,10.3,17.4,19.6,27.7,27.7l10.3,8.2l-3.4,12.7c-2.2,8.1-4.2,16.1-6.2,23.9c-1,3.8,1.2,8,4.9,9.5l37.4,15.5c1,0.4,2,0.6,3,0.6
		c3,0,5.7-1.5,7.1-3.9c4.1-6.9,8.4-14,12.5-21.3l6.6-11.4l13.1,1.5c13,1.5,26.2,1.5,39.2,0L292.4,422.4z"/>
</g>
<path class="st0" d="M305.1,413.8c-5.8-1.5-11.8-3-17.7-4.6c-8.4-2.3-17.2,0.7-22.5,7.5c-6.1,7.8-13.2,14.9-21,21
	c-6.8,5.3-9.7,14.1-7.5,22.5c1.6,6,3.1,11.9,4.6,17.7l-26.1,10.8c-3.1-5.2-6.2-10.5-9.3-15.8c-4.3-7.5-12.7-11.7-21.2-10.6
	c-9.8,1.2-19.8,1.2-29.7,0c-8.6-1.1-16.9,3.1-21.2,10.6c-3.1,5.3-6.2,10.6-9.3,15.8l-26.1-10.8c1.5-5.8,3-11.8,4.6-17.7
	c2.3-8.4-0.7-17.2-7.5-22.5c-7.8-6.1-14.9-13.1-21-21c-5.3-6.8-14.1-9.7-22.5-7.5c-5.9,1.6-11.9,3.1-17.7,4.6l-10.8-26.1
	c5.2-3.1,10.5-6.2,15.8-9.3c7.5-4.3,11.7-12.7,10.6-21.2c-1.2-9.8-1.2-19.8,0-29.7c1.1-8.6-3.1-16.9-10.6-21.2
	c-5.3-3.1-10.6-6.2-15.8-9.3L34.1,271c5.8,1.5,11.8,3,17.7,4.6c8.4,2.3,17.2-0.7,22.5-7.5c6.1-7.8,13.2-14.9,21-21
	c6.8-5.3,9.7-14.1,7.5-22.5c-1.6-5.9-3.1-11.9-4.6-17.7l26.1-10.8c3.1,5.1,6.2,10.4,9.3,15.8c4.3,7.5,12.7,11.7,21.2,10.6
	c9.8-1.2,19.8-1.2,29.7,0c8.6,1.1,16.9-3.1,21.2-10.6c3.1-5.3,6.2-10.6,9.3-15.8l26.1,10.8c-1.5,5.8-3,11.8-4.6,17.7
	c-2.3,8.4,0.7,17.2,7.5,22.5c7.8,6.1,14.9,13.1,21,21c5.3,6.8,14.1,9.7,22.5,7.5c5.9-1.6,11.9-3.1,17.7-4.6l10.8,26.1
	c-5.2,3.1-10.5,6.2-15.8,9.3c-7.5,4.3-11.7,12.7-10.6,21.2c1.2,9.8,1.2,19.8,0,29.7c-1.1,8.6,3.1,16.9,10.6,21.2
	c5.3,3,10.6,6.2,15.8,9.3L305.1,413.8z"/>
<g>
	<path d="M259.8,378.8c-16.1,0-31.9-3.2-47-9.4c-30.3-12.5-53.9-36.1-66.4-66.4c-25.9-62.5,3.9-134.4,66.4-160.3
		c62.5-25.9,134.4,3.9,160.3,66.4l0,0c25.9,62.5-3.9,134.4-66.4,160.3C291.7,375.6,275.9,378.8,259.8,378.8z M259.7,173.3
		c-10.5,0-21.2,2-31.5,6.3c-42.1,17.5-62.2,65.9-44.8,108c8.5,20.4,24.3,36.3,44.8,44.8c10.2,4.2,20.8,6.3,31.6,6.3
		c10.8,0,21.5-2.1,31.7-6.4c42.1-17.5,62.2-65.9,44.8-108.1v0C323,192.5,292.1,173.3,259.7,173.3z"/>
</g>
<path class="st0" d="M190.7,393.4c-13.6,5.6-28.6,5.6-42.2,0c-13.6-5.6-24.2-16.2-29.9-29.9c-11.6-28.1,1.8-60.5,29.9-72.1
	c6.9-2.9,14-4.2,21-4.2c21.7,0,42.3,12.8,51.1,34.1C232.2,349.4,218.8,381.7,190.7,393.4z"/>
<path class="st1" d="M473.2,111.6c-3.3-0.5-6.7-1-10.1-1.4c-1.7-5.7-4-11.2-6.8-16.5c2.1-2.7,4.1-5.4,6.1-8.1
	c4.4-5.9,3.8-14.4-1.5-19.6l-13.1-13.1c-5.2-5.2-13.7-5.9-19.6-1.5c-2.7,2-5.4,4-8.1,6.1c-5.2-2.8-10.8-5.1-16.5-6.8
	c-0.5-3.4-0.9-6.8-1.4-10.1c-1.1-7.3-7.5-12.8-14.9-12.8h-18.6c-7.4,0-13.8,5.5-14.9,12.8c-0.5,3.3-1,6.7-1.4,10.1
	c-5.7,1.7-11.2,4-16.5,6.8c-2.7-2.1-5.4-4.1-8.1-6.1c-5.9-4.4-14.4-3.8-19.6,1.5L295.1,66c-5.2,5.2-5.9,13.7-1.5,19.6
	c2,2.7,4,5.4,6.1,8.1c-2.8,5.2-5.1,10.8-6.8,16.5c-3.4,0.5-6.8,0.9-10.1,1.4c-7.3,1.1-12.8,7.5-12.8,14.9v18.6
	c0,7.4,5.5,13.8,12.8,14.9c3.3,0.5,6.7,1,10.1,1.4c1.7,5.7,4,11.2,6.8,16.5c-2.1,2.7-4.1,5.4-6.1,8.1c-4.4,5.9-3.8,14.4,1.5,19.6
	l13.1,13.1c5.2,5.2,13.7,5.9,19.6,1.5c2.7-2,5.4-4,8.1-6.1c5.2,2.8,10.8,5.1,16.5,6.8c0.5,3.4,0.9,6.8,1.4,10.1
	c1.1,7.3,7.5,12.8,14.9,12.8h18.6c7.4,0,13.8-5.5,14.9-12.8c0.5-3.3,1-6.7,1.4-10.1c5.7-1.7,11.2-4,16.5-6.8
	c2.7,2.1,5.4,4.1,8.1,6.1c5.9,4.4,14.4,3.8,19.6-1.5l13.1-13.1c5.2-5.2,5.9-13.7,1.5-19.6c-2-2.7-4-5.4-6.1-8.1
	c2.8-5.2,5.1-10.8,6.8-16.5c3.4-0.5,6.8-0.9,10.1-1.4c7.3-1.1,12.8-7.5,12.8-14.9v-18.6C486,119.1,480.5,112.7,473.2,111.6z"/>
<path class="st0" d="M490.2,138.1c-3.6,0.5-7.3,1-10.9,1.5c-7.3,0.9-13.2,6.1-15.2,13.1c-1.9,6.7-4.6,13.2-8,19.3
	c-3.6,6.4-3.1,14.2,1.4,20c2.3,2.9,4.5,5.9,6.7,8.8l-11.4,11.4c-2.9-2.2-5.9-4.4-8.8-6.7c-5.8-4.5-13.7-5-20-1.4
	c-6.1,3.5-12.6,6.2-19.3,8c-7,1.9-12.2,7.9-13.1,15.2c-0.5,3.7-1,7.3-1.5,10.9h-16.1c-0.5-3.6-1-7.3-1.5-10.9
	c-0.9-7.3-6.1-13.2-13.1-15.2c-6.7-1.9-13.2-4.6-19.3-8c-6.4-3.6-14.2-3.1-20,1.4c-2.9,2.3-5.9,4.5-8.8,6.7L299.6,201
	c2.2-2.9,4.4-5.9,6.7-8.8c4.5-5.8,5-13.7,1.4-20c-3.5-6.1-6.2-12.6-8-19.3c-1.9-7-7.9-12.2-15.2-13.1c-3.7-0.5-7.3-1-10.9-1.5V122
	c3.6-0.5,7.3-1,10.9-1.5c7.3-0.9,13.2-6.1,15.2-13.1c1.9-6.7,4.6-13.2,8-19.3c3.6-6.4,3.1-14.2-1.4-20c-2.3-2.9-4.5-5.9-6.7-8.8
	L311,47.8c2.9,2.2,5.9,4.4,8.8,6.7c5.8,4.5,13.7,5,20,1.4c6.1-3.5,12.6-6.2,19.3-8c7-1.9,12.2-7.9,13.1-15.2c0.5-3.7,1-7.3,1.5-10.9
	H390c0.5,3.6,1,7.3,1.5,10.9c0.9,7.3,6.1,13.2,13.1,15.2c6.7,1.9,13.2,4.6,19.3,8c6.4,3.6,14.2,3,20-1.4c2.9-2.3,5.9-4.5,8.8-6.7
	l11.4,11.4c-2.2,2.9-4.4,5.9-6.7,8.8c-4.5,5.8-5,13.7-1.4,20c3.5,6.1,6.2,12.6,8,19.3c1.9,7,7.9,12.2,15.2,13.2
	c3.7,0.5,7.3,1,10.9,1.5L490.2,138.1L490.2,138.1z"/>
<path class="st1" d="M378,97.3c-21.2,0-38.5,17.3-38.5,38.5c0,21.2,17.3,38.5,38.5,38.5s38.5-17.3,38.5-38.5
	C416.5,114.6,399.3,97.3,378,97.3z"/>
<path class="st0" d="M381.9,155.9c-14.2,0-25.8-11.6-25.8-25.8s11.6-25.8,25.8-25.8s25.8,11.6,25.8,25.8
	C407.7,144.3,396.1,155.9,381.9,155.9z"/>
</svg>
