<?xml version="1.0" encoding="utf-8"?>
<!-- Generator: Adobe Illustrator 21.0.2, SVG Export Plug-In . SVG Version: 6.00 Build 0)  -->
<svg version="1.1" id="Layer_1" xmlns="http://www.w3.org/2000/svg" xmlns:xlink="http://www.w3.org/1999/xlink" x="0px" y="0px"
	 viewBox="0 0 512 512" style="enable-background:new 0 0 512 512;" xml:space="preserve">
<path d="M256.9,114.4l38.1,79.2l9.1,19l20.8,3.2l86.8,13.5l-63.6,60.7l-15.2,14.5l3.3,20.8l14,86.8l-77.4-41.7l-18.5-10l-18.7,9.6
	l-78.2,40.1l15.8-86.5L177,303l-14.9-14.8l-62.3-62l87.1-11.7l20.8-2.8l9.5-18.8L256.9,114.4 M257.9,24.1l-76.3,150.7L14.1,197.3
	l119.7,119.2l-30.3,166.2l150.3-77.1l148.7,80.2L375.8,319L498,202.3l-166.9-26L257.9,24.1L257.9,24.1z"/>
</svg>
