<?xml version="1.0" encoding="utf-8"?>
<!-- Generator: Adobe Illustrator 21.0.2, SVG Export Plug-In . SVG Version: 6.00 Build 0)  -->
<svg version="1.1" id="Layer_1" xmlns="http://www.w3.org/2000/svg" xmlns:xlink="http://www.w3.org/1999/xlink" x="0px" y="0px"
	 viewBox="0 0 512 512" style="enable-background:new 0 0 512 512;" xml:space="preserve">
<g>
	<path d="M140.6,444.9c-6.7,0-13.2-2.7-18.1-7.7l-0.1-0.1L15.9,325.8c-9.5-9.7-9.6-25-0.2-34.9l0.1-0.1l113.1-117
		c7.2-7.5,18.1-9.7,27.6-5.9c9.5,3.9,15.7,13,15.7,23.4v45.6h183.2c13.6,0,24.6,10.6,25.2,24.1l0.8,16.3l76.2-80.1l-75-69.9v17.4
		c0,13.9-11.3,25.2-25.2,25.2H201.2c-11,0-20-9-20-20s9-20,20-20h141.5V93.2c0-10,6-19.1,15.2-23.1c9.2-4,19.9-2.1,27.2,4.7
		L495.9,178c5,4.6,7.9,11.1,8.1,17.9c0.2,6.7-2.4,13.3-7.1,18.1L386.4,330.1c-7,7.2-17.6,9.6-27.1,6c-9.4-3.6-15.8-12.4-16.2-22.5
		l-1.7-36.8H157.6c-13.9,0-25.2-11.3-25.2-25.2v-23.8l-77.8,80.4l70.7,73.8l-0.2-15.3c0-13.9,11.2-25.2,25-25.2l136-1
		c0.1,0,0.1,0,0.2,0c11,0,19.9,8.9,20,19.8c0.1,11-8.8,20.1-19.8,20.2l-121.1,0.9l0.6,37.7c0.2,10.4-5.9,19.7-15.5,23.7
		C147.2,444.2,143.9,444.9,140.6,444.9z M383.1,311.8L383.1,311.8C383.1,311.9,383.1,311.8,383.1,311.8z M357.8,104
		C357.8,104,357.9,104,357.8,104L357.8,104z"/>
</g>
</svg>
