<?xml version="1.0" encoding="utf-8"?>
<!-- Generator: Adobe Illustrator 21.0.2, SVG Export Plug-In . SVG Version: 6.00 Build 0)  -->
<svg version="1.1" id="Layer_1" xmlns="http://www.w3.org/2000/svg" xmlns:xlink="http://www.w3.org/1999/xlink" x="0px" y="0px"
	 viewBox="0 0 512 512" style="enable-background:new 0 0 512 512;" xml:space="preserve">
<path d="M257,56c53.4,0,103.6,20.8,141.4,58.6S457,202.6,457,256s-20.8,103.6-58.6,141.4S310.4,456,257,456s-103.6-20.8-141.4-58.6
	S57,309.4,57,256s20.8-103.6,58.6-141.4S203.6,56,257,56 M257,16C124.5,16,17,123.5,17,256s107.5,240,240,240s240-107.5,240-240
	S389.5,16,257,16L257,16z"/>
</svg>
